<svg width="150" height="150" viewBox="0 0 150 150" fill="none" xmlns="http://www.w3.org/2000/svg">
<g clip-path="url(#clip0_201_5)">
<path d="M62.596 34.3269C67.4999 29.4231 74.1345 26.25 81.6345 26.25C91.4422 26.25 100.096 31.7308 104.711 39.8077C108.75 38.0769 113.077 36.9231 117.692 36.9231C135.577 36.9231 150 51.3461 150 69.2308C150 87.1154 135.577 101.538 117.692 101.538C115.384 101.538 113.365 101.25 111.346 100.962C107.308 108.173 99.5191 113.077 90.5768 113.077C86.8268 113.077 83.3653 112.212 80.1922 110.769C76.1537 120.288 66.6345 126.923 55.3845 126.923C43.846 126.923 33.7499 119.712 29.9999 109.327C28.2691 109.615 26.5383 109.904 24.8076 109.904C10.9614 109.904 -0.288574 98.6538 -0.288574 84.8077C-0.288574 75.5769 4.61527 67.5 12.1153 63.1731C10.673 59.7115 9.80758 55.6731 9.80758 51.6346C9.80758 35.7692 22.7883 22.7885 38.9422 22.7885C49.0383 23.0769 57.4037 27.4038 62.596 34.3269Z" fill="#B5E853"/>
</g>
<defs>
<clipPath id="clip0_201_5">
<rect width="150" height="150" fill="white"/>
</clipPath>
</defs>
</svg>
